<?xml version="1.0" standalone="no"?><svg xmlns="http://www.w3.org/2000/svg" viewBox="0 0 1440 320"><path fill="#000b76" fill-opacity="1" d="M0,224L40,234.7C80,245,160,267,240,234.7C320,203,400,117,480,112C560,107,640,181,720,229.3C800,277,880,299,960,288C1040,277,1120,235,1200,224C1280,213,1360,235,1400,245.3L1440,256L1440,320L1400,320C1360,320,1280,320,1200,320C1120,320,1040,320,960,320C880,320,800,320,720,320C640,320,560,320,480,320C400,320,320,320,240,320C160,320,80,320,40,320L0,320Z"></path></svg>